<mxfile host="app.diagrams.net" modified="2023-09-21T03:12:09.187Z" agent="Mozilla/5.0 (Windows NT 10.0; Win64; x64) AppleWebKit/537.36 (KHTML, like Gecko) Chrome/116.0.0.0 Safari/537.36" etag="D6HihieYoCoVoRezHG8Y" version="21.8.0" type="device">
  <diagram name="第 1 页" id="JETcf3mfh7IGrQ2nOD_X">
    <mxGraphModel dx="1221" dy="736" grid="1" gridSize="10" guides="1" tooltips="1" connect="1" arrows="1" fold="1" page="1" pageScale="1" pageWidth="827" pageHeight="1169" math="0" shadow="0">
      <root>
        <mxCell id="0" />
        <mxCell id="1" parent="0" />
        <mxCell id="mt127VXMo34h7As8jGk9-1" value="" style="whiteSpace=wrap;html=1;aspect=fixed;fillColor=#0000FF;rounded=0;" vertex="1" parent="1">
          <mxGeometry x="110" y="230" width="80" height="80" as="geometry" />
        </mxCell>
        <mxCell id="mt127VXMo34h7As8jGk9-2" value="" style="whiteSpace=wrap;html=1;aspect=fixed;fillColor=#00ff00;rounded=0;" vertex="1" parent="1">
          <mxGeometry x="100" y="240" width="80" height="80" as="geometry" />
        </mxCell>
        <mxCell id="mt127VXMo34h7As8jGk9-3" value="" style="whiteSpace=wrap;html=1;aspect=fixed;fillColor=#FF0000;rounded=0;" vertex="1" parent="1">
          <mxGeometry x="90" y="250" width="80" height="80" as="geometry" />
        </mxCell>
        <mxCell id="mt127VXMo34h7As8jGk9-4" value="" style="shape=flexArrow;endArrow=classic;html=1;rounded=0;" edge="1" parent="1">
          <mxGeometry width="50" height="50" relative="1" as="geometry">
            <mxPoint x="210" y="279.5" as="sourcePoint" />
            <mxPoint x="270" y="280" as="targetPoint" />
          </mxGeometry>
        </mxCell>
        <mxCell id="mt127VXMo34h7As8jGk9-6" value="" style="whiteSpace=wrap;html=1;aspect=fixed;fillColor=#f5f5f5;fontColor=#333333;strokeColor=#666666;rounded=0;" vertex="1" parent="1">
          <mxGeometry x="300" y="230" width="80" height="80" as="geometry" />
        </mxCell>
        <mxCell id="mt127VXMo34h7As8jGk9-7" value="" style="whiteSpace=wrap;html=1;aspect=fixed;fillColor=#B3B3B3;fontColor=#333333;strokeColor=#666666;rounded=0;" vertex="1" parent="1">
          <mxGeometry x="290" y="240" width="80" height="80" as="geometry" />
        </mxCell>
        <mxCell id="mt127VXMo34h7As8jGk9-8" value="" style="whiteSpace=wrap;html=1;aspect=fixed;fillColor=#f8cecc;strokeColor=#b85450;rounded=0;" vertex="1" parent="1">
          <mxGeometry x="280" y="250" width="80" height="80" as="geometry" />
        </mxCell>
        <mxCell id="mt127VXMo34h7As8jGk9-9" value="" style="shape=flexArrow;endArrow=classic;html=1;rounded=0;" edge="1" parent="1">
          <mxGeometry width="50" height="50" relative="1" as="geometry">
            <mxPoint x="410" y="240" as="sourcePoint" />
            <mxPoint x="460" y="200" as="targetPoint" />
          </mxGeometry>
        </mxCell>
        <mxCell id="mt127VXMo34h7As8jGk9-10" value="" style="shape=flexArrow;endArrow=classic;html=1;rounded=0;" edge="1" parent="1">
          <mxGeometry width="50" height="50" relative="1" as="geometry">
            <mxPoint x="414" y="279.5" as="sourcePoint" />
            <mxPoint x="474" y="279.5" as="targetPoint" />
          </mxGeometry>
        </mxCell>
        <mxCell id="mt127VXMo34h7As8jGk9-11" value="" style="shape=flexArrow;endArrow=classic;html=1;rounded=0;" edge="1" parent="1">
          <mxGeometry width="50" height="50" relative="1" as="geometry">
            <mxPoint x="414" y="320" as="sourcePoint" />
            <mxPoint x="464" y="350" as="targetPoint" />
          </mxGeometry>
        </mxCell>
        <mxCell id="mt127VXMo34h7As8jGk9-12" value="" style="whiteSpace=wrap;html=1;aspect=fixed;fillColor=#f8cecc;strokeColor=#b85450;rounded=0;" vertex="1" parent="1">
          <mxGeometry x="480" y="140" width="80" height="80" as="geometry" />
        </mxCell>
        <mxCell id="mt127VXMo34h7As8jGk9-13" value="" style="whiteSpace=wrap;html=1;aspect=fixed;fillColor=#B3B3B3;strokeColor=#666666;fontColor=#333333;rounded=0;" vertex="1" parent="1">
          <mxGeometry x="490" y="240" width="80" height="80" as="geometry" />
        </mxCell>
        <mxCell id="mt127VXMo34h7As8jGk9-14" value="" style="whiteSpace=wrap;html=1;aspect=fixed;fillColor=#f5f5f5;fontColor=#333333;strokeColor=#666666;rounded=0;" vertex="1" parent="1">
          <mxGeometry x="480" y="340" width="80" height="80" as="geometry" />
        </mxCell>
        <mxCell id="mt127VXMo34h7As8jGk9-16" value="" style="whiteSpace=wrap;html=1;aspect=fixed;fillColor=#999999;rounded=0;" vertex="1" parent="1">
          <mxGeometry x="660" y="340" width="80" height="80" as="geometry" />
        </mxCell>
        <mxCell id="mt127VXMo34h7As8jGk9-17" value="" style="shape=flexArrow;endArrow=classic;html=1;rounded=0;" edge="1" parent="1">
          <mxGeometry width="50" height="50" relative="1" as="geometry">
            <mxPoint x="580" y="379.5" as="sourcePoint" />
            <mxPoint x="640" y="380" as="targetPoint" />
          </mxGeometry>
        </mxCell>
        <mxCell id="mt127VXMo34h7As8jGk9-18" value="&lt;b&gt;RGB图像&lt;/b&gt;" style="text;html=1;strokeColor=none;fillColor=none;align=center;verticalAlign=middle;whiteSpace=wrap;rounded=0;" vertex="1" parent="1">
          <mxGeometry x="100" y="340" width="60" height="30" as="geometry" />
        </mxCell>
        <mxCell id="mt127VXMo34h7As8jGk9-19" value="&lt;b&gt;HSV图像&lt;/b&gt;" style="text;html=1;strokeColor=none;fillColor=none;align=center;verticalAlign=middle;whiteSpace=wrap;rounded=0;" vertex="1" parent="1">
          <mxGeometry x="290" y="340" width="60" height="30" as="geometry" />
        </mxCell>
        <mxCell id="mt127VXMo34h7As8jGk9-20" value="&lt;b&gt;V通道&lt;br&gt;&lt;/b&gt;" style="text;html=1;strokeColor=none;fillColor=none;align=center;verticalAlign=middle;whiteSpace=wrap;rounded=0;rotation=30;" vertex="1" parent="1">
          <mxGeometry x="400" y="350" width="60" height="30" as="geometry" />
        </mxCell>
        <mxCell id="mt127VXMo34h7As8jGk9-21" value="&lt;b&gt;S通道&lt;/b&gt;" style="text;html=1;strokeColor=none;fillColor=none;align=center;verticalAlign=middle;whiteSpace=wrap;rounded=0;" vertex="1" parent="1">
          <mxGeometry x="410" y="250" width="60" height="30" as="geometry" />
        </mxCell>
        <mxCell id="mt127VXMo34h7As8jGk9-22" value="&lt;b&gt;H通道&lt;/b&gt;" style="text;html=1;strokeColor=none;fillColor=none;align=center;verticalAlign=middle;whiteSpace=wrap;rounded=0;rotation=-45;" vertex="1" parent="1">
          <mxGeometry x="384" y="180" width="60" height="30" as="geometry" />
        </mxCell>
        <mxCell id="mt127VXMo34h7As8jGk9-24" value="&lt;b&gt;直方图均衡化&lt;br&gt;&lt;/b&gt;" style="text;html=1;strokeColor=none;fillColor=none;align=center;verticalAlign=middle;whiteSpace=wrap;rounded=0;" vertex="1" parent="1">
          <mxGeometry x="570" y="330" width="80" height="30" as="geometry" />
        </mxCell>
        <mxCell id="mt127VXMo34h7As8jGk9-25" value="" style="whiteSpace=wrap;html=1;aspect=fixed;fillColor=#999999;rounded=0;" vertex="1" parent="1">
          <mxGeometry x="105" y="475" width="80" height="80" as="geometry" />
        </mxCell>
        <mxCell id="mt127VXMo34h7As8jGk9-26" value="" style="whiteSpace=wrap;html=1;aspect=fixed;fillColor=#4D4D4D;rounded=0;" vertex="1" parent="1">
          <mxGeometry x="95" y="485" width="80" height="80" as="geometry" />
        </mxCell>
        <mxCell id="mt127VXMo34h7As8jGk9-27" value="" style="whiteSpace=wrap;html=1;aspect=fixed;fillColor=#B3B3B3;rounded=0;" vertex="1" parent="1">
          <mxGeometry x="85" y="495" width="80" height="80" as="geometry" />
        </mxCell>
        <mxCell id="mt127VXMo34h7As8jGk9-28" value="" style="whiteSpace=wrap;html=1;aspect=fixed;fillColor=#999999;rounded=0;" vertex="1" parent="1">
          <mxGeometry x="75" y="505" width="80" height="80" as="geometry" />
        </mxCell>
        <mxCell id="mt127VXMo34h7As8jGk9-30" value="" style="shape=flexArrow;endArrow=classic;html=1;rounded=0;" edge="1" parent="1">
          <mxGeometry width="50" height="50" relative="1" as="geometry">
            <mxPoint x="210" y="524.5" as="sourcePoint" />
            <mxPoint x="290" y="524.5" as="targetPoint" />
          </mxGeometry>
        </mxCell>
        <mxCell id="mt127VXMo34h7As8jGk9-32" value="&lt;b&gt;LDA模型&lt;/b&gt;" style="ellipse;whiteSpace=wrap;html=1;fillColor=#dae8fc;strokeColor=#6c8ebf;" vertex="1" parent="1">
          <mxGeometry x="324" y="470" width="120" height="110" as="geometry" />
        </mxCell>
        <mxCell id="mt127VXMo34h7As8jGk9-33" value="" style="shape=flexArrow;endArrow=classic;html=1;rounded=0;" edge="1" parent="1">
          <mxGeometry width="50" height="50" relative="1" as="geometry">
            <mxPoint x="480" y="524.5" as="sourcePoint" />
            <mxPoint x="560" y="524.5" as="targetPoint" />
          </mxGeometry>
        </mxCell>
        <mxCell id="mt127VXMo34h7As8jGk9-35" value="&lt;h1&gt;&lt;font color=&quot;#d62424&quot; style=&quot;font-size: 60px;&quot; face=&quot;Comic Sans MS&quot;&gt;D&lt;/font&gt;&lt;/h1&gt;" style="text;html=1;strokeColor=none;fillColor=none;align=center;verticalAlign=middle;whiteSpace=wrap;rounded=0;glass=0;" vertex="1" parent="1">
          <mxGeometry x="610" y="493.75" width="80" height="62.5" as="geometry" />
        </mxCell>
        <mxCell id="mt127VXMo34h7As8jGk9-37" value="&lt;b&gt;图像预处理后的数据集&lt;/b&gt;" style="text;html=1;strokeColor=none;fillColor=none;align=center;verticalAlign=middle;whiteSpace=wrap;rounded=0;" vertex="1" parent="1">
          <mxGeometry x="65" y="605" width="130" height="30" as="geometry" />
        </mxCell>
        <mxCell id="mt127VXMo34h7As8jGk9-38" value="&lt;b&gt;通过LDA映射出来的低维数据集样本&lt;/b&gt;" style="text;html=1;strokeColor=none;fillColor=none;align=center;verticalAlign=middle;whiteSpace=wrap;rounded=0;" vertex="1" parent="1">
          <mxGeometry x="547.5" y="605" width="205" height="30" as="geometry" />
        </mxCell>
        <mxCell id="mt127VXMo34h7As8jGk9-39" value="&lt;h1&gt;&lt;font color=&quot;#d62424&quot; style=&quot;font-size: 60px;&quot; face=&quot;Comic Sans MS&quot;&gt;D&lt;/font&gt;&lt;/h1&gt;" style="text;html=1;strokeColor=none;fillColor=none;align=center;verticalAlign=middle;whiteSpace=wrap;rounded=0;glass=0;" vertex="1" parent="1">
          <mxGeometry x="85" y="720" width="80" height="62.5" as="geometry" />
        </mxCell>
        <mxCell id="mt127VXMo34h7As8jGk9-40" value="" style="shape=flexArrow;endArrow=classic;html=1;rounded=0;" edge="1" parent="1">
          <mxGeometry width="50" height="50" relative="1" as="geometry">
            <mxPoint x="210" y="750.75" as="sourcePoint" />
            <mxPoint x="290" y="750.75" as="targetPoint" />
          </mxGeometry>
        </mxCell>
        <mxCell id="mt127VXMo34h7As8jGk9-41" value="&lt;b&gt;SVM模型&lt;/b&gt;" style="ellipse;whiteSpace=wrap;html=1;fillColor=#d5e8d4;strokeColor=#82b366;" vertex="1" parent="1">
          <mxGeometry x="330" y="696.25" width="120" height="110" as="geometry" />
        </mxCell>
        <mxCell id="mt127VXMo34h7As8jGk9-42" value="" style="shape=flexArrow;endArrow=classic;html=1;rounded=0;" edge="1" parent="1">
          <mxGeometry width="50" height="50" relative="1" as="geometry">
            <mxPoint x="490" y="750.75" as="sourcePoint" />
            <mxPoint x="560" y="730" as="targetPoint" />
          </mxGeometry>
        </mxCell>
        <mxCell id="mt127VXMo34h7As8jGk9-43" value="" style="shape=flexArrow;endArrow=classic;html=1;rounded=0;" edge="1" parent="1">
          <mxGeometry width="50" height="50" relative="1" as="geometry">
            <mxPoint x="490" y="770" as="sourcePoint" />
            <mxPoint x="560" y="790" as="targetPoint" />
          </mxGeometry>
        </mxCell>
        <mxCell id="mt127VXMo34h7As8jGk9-44" value="" style="shape=flexArrow;endArrow=classic;html=1;rounded=0;" edge="1" parent="1">
          <mxGeometry width="50" height="50" relative="1" as="geometry">
            <mxPoint x="490" y="800" as="sourcePoint" />
            <mxPoint x="560" y="830" as="targetPoint" />
          </mxGeometry>
        </mxCell>
        <mxCell id="mt127VXMo34h7As8jGk9-46" value="" style="shape=flexArrow;endArrow=classic;html=1;rounded=0;" edge="1" parent="1">
          <mxGeometry width="50" height="50" relative="1" as="geometry">
            <mxPoint x="490" y="720" as="sourcePoint" />
            <mxPoint x="560" y="690" as="targetPoint" />
          </mxGeometry>
        </mxCell>
        <mxCell id="mt127VXMo34h7As8jGk9-48" value="&lt;b&gt;并指左偏&lt;/b&gt;" style="rounded=0;whiteSpace=wrap;html=1;fillColor=#ffe6cc;strokeColor=#d79b00;" vertex="1" parent="1">
          <mxGeometry x="570" y="670" width="110" height="30" as="geometry" />
        </mxCell>
        <mxCell id="mt127VXMo34h7As8jGk9-49" value="&lt;b&gt;剪刀手&lt;/b&gt;" style="rounded=0;whiteSpace=wrap;html=1;fillColor=#ffe6cc;strokeColor=#d79b00;" vertex="1" parent="1">
          <mxGeometry x="570" y="720" width="110" height="30" as="geometry" />
        </mxCell>
        <mxCell id="mt127VXMo34h7As8jGk9-50" value="&lt;b&gt;分指&lt;/b&gt;" style="rounded=0;whiteSpace=wrap;html=1;fillColor=#ffe6cc;strokeColor=#d79b00;" vertex="1" parent="1">
          <mxGeometry x="570" y="770" width="110" height="30" as="geometry" />
        </mxCell>
        <mxCell id="mt127VXMo34h7As8jGk9-51" value="&lt;b&gt;并指右偏&lt;/b&gt;" style="rounded=0;whiteSpace=wrap;html=1;fillColor=#ffe6cc;strokeColor=#d79b00;" vertex="1" parent="1">
          <mxGeometry x="570" y="820" width="110" height="30" as="geometry" />
        </mxCell>
      </root>
    </mxGraphModel>
  </diagram>
</mxfile>
